<mxfile host="app.diagrams.net" modified="2023-06-09T08:55:32.930Z" agent="Mozilla/5.0 (Windows NT 10.0; Win64; x64) AppleWebKit/537.36 (KHTML, like Gecko) Chrome/114.0.0.0 Safari/537.36" etag="3BUVbd39t7TPBQx6OMaV" version="21.3.8" type="github">
  <diagram name="페이지-1" id="LvWQ-ire4c-rClgCYC2K">
    <mxGraphModel dx="819" dy="437" grid="0" gridSize="10" guides="1" tooltips="1" connect="1" arrows="1" fold="1" page="1" pageScale="1" pageWidth="827" pageHeight="1169" math="0" shadow="0">
      <root>
        <mxCell id="0" />
        <mxCell id="1" parent="0" />
        <mxCell id="uxzSwqavnU3F6RzpwM2l-18" style="edgeStyle=orthogonalEdgeStyle;rounded=0;orthogonalLoop=1;jettySize=auto;html=1;" edge="1" parent="1" source="uxzSwqavnU3F6RzpwM2l-1" target="uxzSwqavnU3F6RzpwM2l-2">
          <mxGeometry relative="1" as="geometry">
            <Array as="points">
              <mxPoint x="350" y="130" />
              <mxPoint x="210" y="130" />
            </Array>
          </mxGeometry>
        </mxCell>
        <mxCell id="uxzSwqavnU3F6RzpwM2l-19" style="edgeStyle=orthogonalEdgeStyle;rounded=0;orthogonalLoop=1;jettySize=auto;html=1;" edge="1" parent="1" source="uxzSwqavnU3F6RzpwM2l-1" target="uxzSwqavnU3F6RzpwM2l-3">
          <mxGeometry relative="1" as="geometry">
            <Array as="points">
              <mxPoint x="350" y="130" />
              <mxPoint x="495" y="130" />
            </Array>
          </mxGeometry>
        </mxCell>
        <mxCell id="uxzSwqavnU3F6RzpwM2l-1" value="Nested Class" style="rounded=0;whiteSpace=wrap;html=1;" vertex="1" parent="1">
          <mxGeometry x="300" y="50" width="100" height="50" as="geometry" />
        </mxCell>
        <mxCell id="uxzSwqavnU3F6RzpwM2l-20" style="edgeStyle=orthogonalEdgeStyle;rounded=0;orthogonalLoop=1;jettySize=auto;html=1;" edge="1" parent="1" source="uxzSwqavnU3F6RzpwM2l-2" target="uxzSwqavnU3F6RzpwM2l-4">
          <mxGeometry relative="1" as="geometry">
            <Array as="points">
              <mxPoint x="190" y="230" />
              <mxPoint x="120" y="230" />
            </Array>
          </mxGeometry>
        </mxCell>
        <mxCell id="uxzSwqavnU3F6RzpwM2l-21" style="edgeStyle=orthogonalEdgeStyle;rounded=0;orthogonalLoop=1;jettySize=auto;html=1;" edge="1" parent="1" source="uxzSwqavnU3F6RzpwM2l-2" target="uxzSwqavnU3F6RzpwM2l-5">
          <mxGeometry relative="1" as="geometry">
            <Array as="points">
              <mxPoint x="190" y="230" />
              <mxPoint x="255" y="230" />
            </Array>
          </mxGeometry>
        </mxCell>
        <mxCell id="uxzSwqavnU3F6RzpwM2l-2" value="Member Class" style="rounded=0;whiteSpace=wrap;html=1;" vertex="1" parent="1">
          <mxGeometry x="140" y="160" width="100" height="50" as="geometry" />
        </mxCell>
        <mxCell id="uxzSwqavnU3F6RzpwM2l-22" style="edgeStyle=orthogonalEdgeStyle;rounded=0;orthogonalLoop=1;jettySize=auto;html=1;" edge="1" parent="1" source="uxzSwqavnU3F6RzpwM2l-3" target="uxzSwqavnU3F6RzpwM2l-6">
          <mxGeometry relative="1" as="geometry" />
        </mxCell>
        <mxCell id="uxzSwqavnU3F6RzpwM2l-23" style="edgeStyle=orthogonalEdgeStyle;rounded=0;orthogonalLoop=1;jettySize=auto;html=1;" edge="1" parent="1" source="uxzSwqavnU3F6RzpwM2l-3" target="uxzSwqavnU3F6RzpwM2l-7">
          <mxGeometry relative="1" as="geometry" />
        </mxCell>
        <mxCell id="uxzSwqavnU3F6RzpwM2l-3" value="non-Member Class" style="rounded=0;whiteSpace=wrap;html=1;" vertex="1" parent="1">
          <mxGeometry x="430" y="160" width="130" height="50" as="geometry" />
        </mxCell>
        <mxCell id="uxzSwqavnU3F6RzpwM2l-4" value="Static Class" style="rounded=0;whiteSpace=wrap;html=1;fillColor=#008a00;fontColor=#ffffff;strokeColor=#005700;" vertex="1" parent="1">
          <mxGeometry x="80" y="257" width="80" height="50" as="geometry" />
        </mxCell>
        <mxCell id="uxzSwqavnU3F6RzpwM2l-5" value="non-Static Class" style="rounded=0;whiteSpace=wrap;html=1;fillColor=#0050ef;fontColor=#ffffff;strokeColor=#001DBC;" vertex="1" parent="1">
          <mxGeometry x="200" y="257" width="110" height="50" as="geometry" />
        </mxCell>
        <mxCell id="uxzSwqavnU3F6RzpwM2l-6" value="Anonymous Class" style="rounded=0;whiteSpace=wrap;html=1;fillColor=#0050ef;fontColor=#ffffff;strokeColor=#001DBC;" vertex="1" parent="1">
          <mxGeometry x="384" y="257" width="110" height="50" as="geometry" />
        </mxCell>
        <mxCell id="uxzSwqavnU3F6RzpwM2l-7" value="Local Class" style="rounded=0;whiteSpace=wrap;html=1;fillColor=#0050ef;fontColor=#ffffff;strokeColor=#001DBC;" vertex="1" parent="1">
          <mxGeometry x="534" y="257" width="80" height="50" as="geometry" />
        </mxCell>
        <mxCell id="uxzSwqavnU3F6RzpwM2l-9" value="" style="edgeStyle=orthogonalEdgeStyle;rounded=0;orthogonalLoop=1;jettySize=auto;html=1;" edge="1" parent="1" source="uxzSwqavnU3F6RzpwM2l-8" target="uxzSwqavnU3F6RzpwM2l-4">
          <mxGeometry relative="1" as="geometry" />
        </mxCell>
        <mxCell id="uxzSwqavnU3F6RzpwM2l-8" value="OUTER" style="rounded=1;whiteSpace=wrap;html=1;fillColor=#008a00;fontColor=#ffffff;strokeColor=#005700;" vertex="1" parent="1">
          <mxGeometry x="95" y="337" width="50" height="40" as="geometry" />
        </mxCell>
        <mxCell id="uxzSwqavnU3F6RzpwM2l-10" value="INNER" style="rounded=1;whiteSpace=wrap;html=1;fillColor=#0050ef;fontColor=#ffffff;strokeColor=#001DBC;" vertex="1" parent="1">
          <mxGeometry x="414" y="337" width="50" height="40" as="geometry" />
        </mxCell>
        <mxCell id="uxzSwqavnU3F6RzpwM2l-13" value="" style="endArrow=classic;html=1;rounded=0;" edge="1" parent="1" source="uxzSwqavnU3F6RzpwM2l-10" target="uxzSwqavnU3F6RzpwM2l-5">
          <mxGeometry width="50" height="50" relative="1" as="geometry">
            <mxPoint x="300" y="327" as="sourcePoint" />
            <mxPoint x="350" y="277" as="targetPoint" />
          </mxGeometry>
        </mxCell>
        <mxCell id="uxzSwqavnU3F6RzpwM2l-14" value="" style="endArrow=classic;html=1;rounded=0;" edge="1" parent="1" source="uxzSwqavnU3F6RzpwM2l-10" target="uxzSwqavnU3F6RzpwM2l-6">
          <mxGeometry width="50" height="50" relative="1" as="geometry">
            <mxPoint x="360" y="351" as="sourcePoint" />
            <mxPoint x="305" y="317" as="targetPoint" />
          </mxGeometry>
        </mxCell>
        <mxCell id="uxzSwqavnU3F6RzpwM2l-15" value="" style="endArrow=classic;html=1;rounded=0;" edge="1" parent="1" source="uxzSwqavnU3F6RzpwM2l-10" target="uxzSwqavnU3F6RzpwM2l-7">
          <mxGeometry width="50" height="50" relative="1" as="geometry">
            <mxPoint x="398" y="347" as="sourcePoint" />
            <mxPoint x="418" y="317" as="targetPoint" />
          </mxGeometry>
        </mxCell>
      </root>
    </mxGraphModel>
  </diagram>
</mxfile>
